<?xml version="1.0" standalone="no"?><!DOCTYPE svg PUBLIC "-//W3C//DTD SVG 1.1//EN" "http://www.w3.org/Graphics/SVG/1.1/DTD/svg11.dtd"><svg t="1609066796998" class="icon" viewBox="0 0 1024 1024" version="1.1" xmlns="http://www.w3.org/2000/svg" p-id="2495" xmlns:xlink="http://www.w3.org/1999/xlink" width="200" height="200"><defs><style type="text/css"></style></defs><path d="M514 118.6c-217.6 0-394.6 176.9-394.6 394.6s177 394.5 394.6 394.5 394.6-176.9 394.6-394.6-177-394.5-394.6-394.5z m0 746.4c-194 0-351.8-157.8-351.8-351.8S320 161.4 514 161.4s351.8 157.8 351.8 351.8S708 865 514 865z" p-id="2496" fill="#d42390"></path><path d="M451.3 430.6L296.6 585.3l30.2 30.2 154.7-154.7c17.9-17.9 47.1-17.9 65 0l154.7 154.7 30.2-30.2-154.7-154.7c-34.6-34.6-90.8-34.6-125.4 0z" p-id="2497" fill="#d42390"></path></svg>