<?xml version="1.0" standalone="no"?><!DOCTYPE svg PUBLIC "-//W3C//DTD SVG 1.1//EN" "http://www.w3.org/Graphics/SVG/1.1/DTD/svg11.dtd"><svg t="1607604183875" class="icon" viewBox="0 0 1024 1024" version="1.1" xmlns="http://www.w3.org/2000/svg" p-id="1656" xmlns:xlink="http://www.w3.org/1999/xlink" width="200" height="200"><defs><style type="text/css"></style></defs><path d="M736.1 927.3H271.2c-54.9 0-99.6-44.7-99.6-99.6V513.9c0-9.9-8.1-18-18-18-24.9 0-46.4-15.2-54.7-38.7-8.3-23.5-1.2-48.8 18.2-64.5l350.1-283c21.1-17 51.8-17.1 72.9 0l350.2 283.1c19.4 15.7 26.5 41 18.2 64.5S878.7 496 853.8 496c-9.9 0-18 8.1-18 18v313.8c-0.1 54.8-44.8 99.5-99.7 99.5zM503.6 136.7c-4 0-8.1 1.3-11.3 4l-350.1 283c-9.2 7.4-6.7 17.2-5.7 20 1 2.8 5.2 12 17 12 32 0 58 26 58 58v313.8c0 32.9 26.8 59.6 59.6 59.6H736c32.9 0 59.7-26.8 59.7-59.6V513.9c0-32 26-58 58-58 11.9 0 16-9.2 17-12 1-2.8 3.5-12.6-5.7-20L515 140.7c-3.3-2.6-7.3-4-11.4-4z" p-id="1657" fill="#d4237a"></path></svg>