<?xml version="1.0" standalone="no"?><!DOCTYPE svg PUBLIC "-//W3C//DTD SVG 1.1//EN" "http://www.w3.org/Graphics/SVG/1.1/DTD/svg11.dtd"><svg t="1607604202494" class="icon" viewBox="0 0 1024 1024" version="1.1" xmlns="http://www.w3.org/2000/svg" p-id="1845" xmlns:xlink="http://www.w3.org/1999/xlink" width="200" height="200"><defs><style type="text/css"></style></defs><path d="M857.9 745.6h-72.5c0.2-1 0.3-2 0.3-3.1V465.9c0-73.1-28.5-141.8-80.1-193.5-47-46.9-108-74.7-173.6-79.4v-53h49.2c11 0 20-9 20-20s-9-20-20-20H442.8c-11 0-20 9-20 20s9 20 20 20H492v53c-65.6 4.7-126.6 32.5-173.5 79.4-51.7 51.7-80.1 120.4-80.1 193.5v276.7c0 1 0.1 2.1 0.3 3.1h-72.5c-11 0-20 9-20 20s9 20 20 20h691.7c11 0 20-9 20-20s-9-20.1-20-20.1z m-579.5-3V465.9c0-128.8 104.8-233.6 233.6-233.6s233.6 104.8 233.6 233.6v276.7c0 1 0.1 2.1 0.3 3.1H278.1c0.2-1.1 0.3-2.1 0.3-3.1zM581.2 814.8c-11 0-20 9-20 20 0 27.1-22.1 49.2-49.2 49.2s-49.2-22.1-49.2-49.2c0-11-9-20-20-20s-20 9-20 20c0 49.2 40 89.2 89.2 89.2s89.2-40 89.2-89.2c0-11-9-20-20-20z" p-id="1846" fill="#d4237a"></path></svg>