<?xml version="1.0" standalone="no"?><!DOCTYPE svg PUBLIC "-//W3C//DTD SVG 1.1//EN" "http://www.w3.org/Graphics/SVG/1.1/DTD/svg11.dtd"><svg t="1607604089801" class="icon" viewBox="0 0 1024 1024" version="1.1" xmlns="http://www.w3.org/2000/svg" p-id="984" xmlns:xlink="http://www.w3.org/1999/xlink" width="200" height="200"><defs><style type="text/css"></style></defs><path d="M512 405.4c94.8 0 171.9-77.1 171.9-171.9S606.8 61.6 512 61.6s-171.9 77.1-171.9 171.9S417.2 405.4 512 405.4z m0-303.8c72.7 0 131.9 59.2 131.9 131.9S584.7 365.4 512 365.4s-131.9-59.2-131.9-131.9S439.3 101.6 512 101.6zM800 608.8c-31.3-45.2-70.8-80.2-117.4-104.1-49.2-25.2-106.7-38-170.7-38s-121.4 12.8-170.7 38c-46.5 23.8-86 58.8-117.4 104.1-56.5 81.6-86.4 196.9-86.4 333.6 0 11 9 20 20 20H863c0.6 0 1.1 0 1.7-0.1 0.5 0 1.1 0.1 1.7 0.1 11 0 20-9 20-20 0-136.7-29.8-252.1-86.4-333.6z m-543.2 22.7c57.4-82.8 143.3-124.9 255.2-124.9 111.9 0 197.8 42 255.2 124.9 49.1 70.9 76.3 171.2 79 290.8H177.8c2.7-119.6 29.9-219.8 79-290.8z" p-id="985" fill="#d4237a"></path><path d="M512 734.5c11 0 20-9 20-20V588c0-11-9-20-20-20s-20 9-20 20v126.6c0 11 9 19.9 20 19.9z" p-id="986" fill="#d4237a"></path></svg>